<?xml version="1.0" encoding="utf-8"?>
<!-- Generator: Adobe Illustrator 22.1.0, SVG Export Plug-In . SVG Version: 6.00 Build 0)  -->
<svg version="1.1" xmlns="http://www.w3.org/2000/svg" xmlns:xlink="http://www.w3.org/1999/xlink" x="0px" y="0px"
	 viewBox="0 0 50 50" style="enable-background:new 0 0 50 50;" xml:space="preserve">
<style type="text/css">
	.st0{display:none;}
	.st1{display:inline;opacity:0.19;}
	.st2{fill:none;}
	.st3{fill:#525252;}
	.st4{fill:none;stroke:#003064;stroke-width:4;stroke-miterlimit:10;}
	.st5{fill:#003064;}
</style>
<g id="Layer_1" class="st0">
	<g class="st1">
		<polygon class="st2" points="34.3,6.9 43.5,15.1 44,14.7 34.7,6.5 		"/>
		<path class="st3" d="M47.8,6.3c-0.8-1.1-2-2.1-3-3c-1-0.9-2.1-1.9-3.4-2.2c-0.5-0.1-1.1-0.2-1.7,0c-1.3,0.4-2.6,1.7-3.6,2.7
			c-1.2,1.1-2.3,2.2-3.3,3.4c-2.2,2.3-4.5,4.6-6.7,6.9c-4.6,4.6-9.2,9.3-13.8,13.9c-2.5,2.6-5.1,5.1-7.6,7.7
			c-0.5,0.5-1.3,1.1-1.5,1.9c-0.2,0.8-0.3,1.6-0.4,2.4c-0.1,0.9-0.3,1.7-0.4,2.6c-0.1,0.8-0.3,1.8-0.4,2.6L1,49l4.4-0.8
			c0.8-0.1,1.7-0.3,2.6-0.4c0.9-0.2,1.7-0.3,2.6-0.5c0.8-0.1,1.6-0.3,2.4-0.4c0.7-0.2,1.3-1,1.8-1.5c2.6-2.5,5.1-5.1,7.6-7.6
			c4.6-4.6,9.2-9.3,13.8-13.9c2.3-2.3,4.5-4.6,6.8-6.8c1.1-1.1,2.3-2.2,3.3-3.4c1-1,2.2-2.5,2.5-3.9C49.2,8.3,48.7,7.4,47.8,6.3z
			 M4.6,47.2l-1.9-1.7l1.5-7.5l8.2,8L4.6,47.2z M43.5,15.1l-9.3-8.2l0.4-0.4l9.3,8.2L43.5,15.1z"/>
	</g>
</g>
<g id="Layer_2">
	<path class="st4" d="M47,23c0,0-9.8,12-22,12S3,23,3,23s9.8-12,22-12S47,23,47,23z"/>
	<g>
		<path class="st5" d="M33,18.9V19l-8,3l4-7h0.1c-1.2-0.6-2.6-1-4.1-1c-5,0-9,4-9,9c0,5,4,9,9,9s9-4,9-9C34,21.5,33.6,20.1,33,18.9z
			"/>
	</g>
</g>
</svg>
