<svg xmlns="http://www.w3.org/2000/svg" width="18" height="17.999" viewBox="0 0 18 17.999"><defs><style>.a{fill:#444;}</style></defs><g transform="translate(-3910 -11)"><path class="a" d="M101.5,172.4l-.885-.885-3.553,3.552-3.706-3.706-.9.9,3.7,3.709L92.6,179.524l.447.449.438.436,3.558-3.556,3.549,3.551.9-.9-3.553-3.551Z" transform="translate(3821.947 -156.081)"/><path class="a" d="M96.6,167.766a7.877,7.877,0,1,0,7.877,7.876,7.888,7.888,0,0,0-7.877-7.876m0,16.875a9,9,0,1,1,9-9,9.009,9.009,0,0,1-9,9" transform="translate(3822.398 -155.642)"/></g></svg>