<?xml version="1.0" encoding="utf-8"?>
<!-- Generator: Adobe Illustrator 22.1.0, SVG Export Plug-In . SVG Version: 6.00 Build 0)  -->
<svg version="1.1" xmlns="http://www.w3.org/2000/svg" xmlns:xlink="http://www.w3.org/1999/xlink" x="0px" y="0px"
	 viewBox="0 0 50 50" style="enable-background:new 0 0 50 50;" xml:space="preserve">
<style type="text/css">
	.st0{display:none;}
	.st1{display:inline;opacity:0.19;}
	.st2{fill:none;}
	.st3{fill:#525252;}
	.st4{fill:#003064;}
</style>
<g id="Layer_1" class="st0">
	<g class="st1">
		<polygon class="st2" points="34.3,6.9 43.5,15.1 44,14.7 34.7,6.5 		"/>
		<path class="st3" d="M47.8,6.3c-0.8-1.1-2-2.1-3-3c-1-0.9-2.1-1.9-3.4-2.2c-0.5-0.1-1.1-0.2-1.7,0c-1.3,0.4-2.6,1.7-3.6,2.7
			c-1.2,1.1-2.3,2.2-3.3,3.4c-2.2,2.3-4.5,4.6-6.7,6.9c-4.6,4.6-9.2,9.3-13.8,13.9c-2.5,2.6-5.1,5.1-7.6,7.7
			c-0.5,0.5-1.3,1.1-1.5,1.9c-0.2,0.8-0.3,1.6-0.4,2.4c-0.1,0.9-0.3,1.7-0.4,2.6c-0.1,0.8-0.3,1.8-0.4,2.6L1,49l4.4-0.8
			c0.8-0.1,1.7-0.3,2.6-0.4c0.9-0.2,1.7-0.3,2.6-0.5c0.8-0.1,1.6-0.3,2.4-0.4c0.7-0.2,1.3-1,1.8-1.5c2.6-2.5,5.1-5.1,7.6-7.6
			c4.6-4.6,9.2-9.3,13.8-13.9c2.3-2.3,4.5-4.6,6.8-6.8c1.1-1.1,2.3-2.2,3.3-3.4c1-1,2.2-2.5,2.5-3.9C49.2,8.3,48.7,7.4,47.8,6.3z
			 M4.6,47.2l-1.9-1.7l1.5-7.5l8.2,8L4.6,47.2z M43.5,15.1l-9.3-8.2l0.4-0.4l9.3,8.2L43.5,15.1z"/>
	</g>
</g>
<g id="Layer_2">
	<g>
		<path class="st4" d="M30,18.9h-2.5V24H30c1.6,0,2.5-1,2.5-2.6C32.5,19.9,31.6,18.9,30,18.9z"/>
		<path class="st4" d="M43.4,10H6.6C4.1,10,2,12.1,2,14.7v18.7C2,35.9,4.1,38,6.6,38h36.8c2.5,0,4.6-2.1,4.6-4.7V14.7
			C48,12.1,45.9,10,43.4,10z M20.2,31.5l-1.2-3.8h-5.2l-1.2,3.8H9.8L15,16.5h2.8l5.2,14.9H20.2z M30.5,26.3h-3v5.1h-2.7V16.5h5.7
			c2.8,0,4.7,2,4.7,4.9S33.3,26.3,30.5,26.3z M40.2,31.5h-2.7V16.5h2.7V31.5z"/>
		<path class="st4" d="M16.4,19.1L16.4,19.1c0,0-0.4,1.5-0.7,2.3l-1.3,4h3.9l-1.3-4C16.7,20.6,16.4,19.1,16.4,19.1z"/>
	</g>
</g>
</svg>
