<svg xmlns="http://www.w3.org/2000/svg" width="19.528" height="18" viewBox="0 0 19.528 18"><defs><style>.a{fill:#fff;}</style></defs><path class="a" d="M19.471,10.022a.592.592,0,0,0-.535-.339H.591a.592.592,0,0,0-.457.968L7.187,19.2v7.887a.592.592,0,0,0,.855.53L12,25.658a.592.592,0,0,0,.329-.53L12.34,19.2l7.052-8.553A.592.592,0,0,0,19.471,10.022Zm-8.179,8.593a.592.592,0,0,0-.135.376l-.008,5.769L8.37,26.137V18.992a.592.592,0,0,0-.135-.377L1.847,10.867H17.681Z" transform="translate(0 -9.683)"/></svg>