<?xml version="1.0" encoding="utf-8" standalone="no"?>
<svg xmlns:dc="http://purl.org/dc/elements/1.1/" xmlns:cc="http://creativecommons.org/ns#"
xmlns:rdf="http://www.w3.org/1999/02/22-rdf-syntax-ns#" xmlns:svg="http://www.w3.org/2000/svg" xmlns="http://www.w3.org/2000/svg"
xmlns:sodipodi="http://sodipodi.sourceforge.net/DTD/sodipodi-0.dtd" xmlns:inkscape="http://www.inkscape.org/namespaces/inkscape"
style="isolation:isolate" viewBox="0 0 60 60" width="60" height="60" version="1.1" id="svg11"
sodipodi:docname="icon_kat_agri.svg" inkscape:version="0.92.3 (2405546, 2018-03-11)">
  <defs id="defs5" />
  <g style="color:#000000;font-style:normal;font-variant:normal;font-weight:normal;font-stretch:normal;font-size:medium;line-height:normal;font-family:sans-serif;font-variant-ligatures:normal;font-variant-position:normal;font-variant-caps:normal;font-variant-numeric:normal;font-variant-alternates:normal;font-feature-settings:normal;text-indent:0;text-align:start;text-decoration:none;text-decoration-line:none;text-decoration-style:solid;text-decoration-color:#000000;letter-spacing:normal;word-spacing:normal;text-transform:none;writing-mode:lr-tb;direction:ltr;text-orientation:mixed;dominant-baseline:auto;baseline-shift:baseline;text-anchor:start;white-space:normal;shape-padding:0;clip-rule:nonzero;display:inline;overflow:visible;visibility:visible;opacity:1;isolation:auto;mix-blend-mode:normal;color-interpolation:sRGB;color-interpolation-filters:linearRGB;solid-color:#000000;solid-opacity:1;vector-effect:none;fill:#003064;fill-opacity:1;fill-rule:nonzero;stroke:none;stroke-width:4;stroke-linecap:round;stroke-linejoin:round;stroke-miterlimit:4;stroke-dasharray:none;stroke-dashoffset:0;stroke-opacity:1;color-rendering:auto;image-rendering:auto;shape-rendering:auto;text-rendering:auto;enable-background:accumulate"
  id="g21">
    <path id="path87"
    d="M 47.708984,6.5664062 A 2.0002,2.0002 0 0 0 45.738281,8.59375 v 8.226562 a 2.0002,2.0002 0 1 0 4,0 V 8.59375 A 2.0002,2.0002 0 0 0 47.708984,6.5664062 Z" />
    <path id="path894" d="m 32.566406,42.476562 a 2.0002,2.0002 0 1 0 0,4 h 8.228516 a 2.0002,2.0002 0 1 0 0,-4 z" />
    <path id="path896"
    d="m 51.728516,41.308594 c -4.491668,0 -8.175782,3.684113 -8.175782,8.175781 0,4.491668 3.684114,8.175781 8.175782,8.175781 4.491668,0 8.175781,-3.684113 8.175781,-8.175781 0,-4.491668 -3.684113,-8.175781 -8.175781,-8.175781 z m 0,4 c 2.329907,0 4.175781,1.845874 4.175781,4.175781 0,2.329907 -1.845874,4.175781 -4.175781,4.175781 -2.329908,0 -4.175782,-1.845874 -4.175782,-4.175781 0,-2.329907 1.845874,-4.175781 4.175782,-4.175781 z" />
    <path id="circle898"
    d="m 14.335938,38.253906 c -4.06532,0 -7.4042974,3.338978 -7.4042974,7.404297 0,4.06532 3.3389774,7.404297 7.4042974,7.404297 4.065319,0 7.404296,-3.338977 7.404296,-7.404297 0,-4.065319 -3.338977,-7.404297 -7.404296,-7.404297 z m 0,4 c 1.903559,0 3.404296,1.500738 3.404296,3.404297 0,1.903559 -1.500737,3.404297 -3.404296,3.404297 -1.90356,0 -3.404297,-1.500738 -3.404297,-3.404297 0,-1.903559 1.500737,-3.404297 3.404297,-3.404297 z" />
    <path id="circle926"
    d="m 14.335938,31.417969 c -7.8231062,0 -14.24023488,6.291195 -14.24023488,14.039062 0,7.747868 6.41712868,14.039063 14.24023488,14.039063 7.823105,0 14.240234,-6.291195 14.240234,-14.039063 0,-7.747867 -6.417129,-14.039062 -14.240234,-14.039062 z m 0,4 c 5.696856,0 10.240234,4.489059 10.240234,10.039062 0,5.550003 -4.543378,10.039063 -10.240234,10.039063 -5.6968568,0 -10.2402349,-4.48906 -10.2402349,-10.039063 0,-5.550003 4.5433781,-10.039062 10.2402349,-10.039062 z" />
    <path id="path928"
    d="m 4.9121094,0.50390625 a 2.0002,2.0002 0 0 0 -2,1.99999995 V 30.150391 a 2.0002,2.0002 0 1 0 4,0 V 4.5039062 H 28.558594 l 2.732422,16.0292968 a 2.0002,2.0002 0 0 0 1.638672,1.636719 l 20.953124,3.539062 V 37.1875 a 2.0002,2.0002 0 1 0 4,0 V 24.017578 A 2.0002,2.0002 0 0 0 56.214844,22.044922 L 34.996094,18.460938 32.21875,2.1679688 A 2.0002,2.0002 0 0 0 30.246094,0.50390625 Z" />
    <path id="path944"
    d="m 11.044922,7.640625 a 2.0002,2.0002 0 0 0 -2.0000001,2 v 13.371094 a 2.0002,2.0002 0 0 0 2.0000001,2 h 16.185547 a 2.0002,2.0002 0 0 0 1.96875,-2.355469 L 26.785156,9.2851562 A 2.0002,2.0002 0 0 0 24.818359,7.640625 Z m 2,4 h 10.101562 l 1.689454,9.371094 H 13.044922 Z" />
  </g>
</svg>
