<?xml version="1.0" encoding="UTF-8" standalone="no"?>
<!-- Created with Inkscape (http://www.inkscape.org/) -->

<svg
   xmlns:dc="http://purl.org/dc/elements/1.1/"
   xmlns:cc="http://creativecommons.org/ns#"
   xmlns:rdf="http://www.w3.org/1999/02/22-rdf-syntax-ns#"
   xmlns:svg="http://www.w3.org/2000/svg"
   xmlns="http://www.w3.org/2000/svg"
   xmlns:sodipodi="http://sodipodi.sourceforge.net/DTD/sodipodi-0.dtd"
   xmlns:inkscape="http://www.inkscape.org/namespaces/inkscape"
   width="24"
   height="24"
   viewBox="0 0 6.3499998 6.3500001"
   version="1.1"
   id="svg908"
   inkscape:version="0.92.3 (2405546, 2018-03-11)"
   sodipodi:docname="opendata-2.svg">
  <defs
     id="defs902" />
  <sodipodi:namedview
     id="base"
     pagecolor="#ffffff"
     bordercolor="#666666"
     borderopacity="1.0"
     inkscape:pageopacity="0.0"
     inkscape:pageshadow="2"
     inkscape:zoom="16.417062"
     inkscape:cx="8.4522277"
     inkscape:cy="2.5068858"
     inkscape:document-units="mm"
     inkscape:current-layer="layer1"
     showgrid="false"
     units="px"
     fit-margin-top="0"
     fit-margin-left="0"
     fit-margin-right="0"
     fit-margin-bottom="0"
     inkscape:window-width="1920"
     inkscape:window-height="1031"
     inkscape:window-x="1920"
     inkscape:window-y="25"
     inkscape:window-maximized="1" />
  <metadata
     id="metadata905">
    <rdf:RDF>
      <cc:Work
         rdf:about="">
        <dc:format>image/svg+xml</dc:format>
        <dc:type
           rdf:resource="http://purl.org/dc/dcmitype/StillImage" />
        <dc:title />
      </cc:Work>
    </rdf:RDF>
  </metadata>
  <g
     inkscape:label="Ebene 1"
     inkscape:groupmode="layer"
     id="layer1"
     transform="translate(171.50595,-209.66786)">
    <circle
       style="opacity:1;vector-effect:none;fill:#003064;fill-opacity:1;stroke:none;stroke-width:1.05833316;stroke-linecap:round;stroke-linejoin:round;stroke-miterlimit:4;stroke-dasharray:none;stroke-dashoffset:0;stroke-opacity:1"
       id="path10"
       cx="-168.33095"
       cy="212.84286"
       r="3.175" />
    <g
       aria-label="RE"
       style="font-style:normal;font-variant:normal;font-weight:bold;font-stretch:normal;font-size:3.36020827px;line-height:1.25;font-family:Arial;-inkscape-font-specification:'Arial Bold';text-align:center;letter-spacing:0px;word-spacing:0px;text-anchor:middle;fill:#ffffff;fill-opacity:1;stroke:none;stroke-width:0.26458332"
       id="text819">
      <path
         d="m -170.45897,214.04552 v -2.40531 h 1.02217 q 0.38557,0 0.55949,0.0656 0.17556,0.064 0.28057,0.2297 0.105,0.16572 0.105,0.37901 0,0.27072 -0.15915,0.44792 -0.15915,0.17556 -0.47581,0.2215 0.15751,0.0919 0.25924,0.20181 0.10336,0.10992 0.27728,0.39049 l 0.29369,0.46925 h -0.58082 l -0.35111,-0.52339 q -0.18705,-0.28057 -0.25596,-0.35276 -0.0689,-0.0738 -0.14602,-0.10009 -0.0771,-0.0279 -0.24447,-0.0279 h -0.0984 v 1.00413 z m 0.48566,-1.38806 h 0.35932 q 0.34947,0 0.43643,-0.0295 0.087,-0.0295 0.13618,-0.10173 0.0492,-0.0722 0.0492,-0.18048 0,-0.12141 -0.0656,-0.19524 -0.064,-0.0755 -0.18212,-0.0952 -0.0591,-0.008 -0.3544,-0.008 h -0.379 z"
         style="font-style:normal;font-variant:normal;font-weight:bold;font-stretch:normal;font-size:3.36020827px;font-family:Arial;-inkscape-font-specification:'Arial Bold';text-align:center;text-anchor:middle;fill:#ffffff;stroke-width:0.26458332"
         id="path51" />
      <path
         d="m -168.03233,214.04552 v -2.40531 h 1.78347 v 0.4069 h -1.29782 v 0.53324 h 1.20758 v 0.40526 h -1.20758 v 0.65465 h 1.34376 v 0.40526 z"
         style="font-style:normal;font-variant:normal;font-weight:bold;font-stretch:normal;font-size:3.36020827px;font-family:Arial;-inkscape-font-specification:'Arial Bold';text-align:center;text-anchor:middle;fill:#ffffff;stroke-width:0.26458332"
         id="path53" />
    </g>
  </g>
</svg>
