<?xml version="1.0" encoding="UTF-8" standalone="no"?>
<!-- Created with Inkscape (http://www.inkscape.org/) -->

<svg
   xmlns:dc="http://purl.org/dc/elements/1.1/"
   xmlns:cc="http://creativecommons.org/ns#"
   xmlns:rdf="http://www.w3.org/1999/02/22-rdf-syntax-ns#"
   xmlns:svg="http://www.w3.org/2000/svg"
   xmlns="http://www.w3.org/2000/svg"
   xmlns:sodipodi="http://sodipodi.sourceforge.net/DTD/sodipodi-0.dtd"
   xmlns:inkscape="http://www.inkscape.org/namespaces/inkscape"
   width="24"
   height="24"
   viewBox="0 0 6.3499998 6.3500001"
   version="1.1"
   id="svg908"
   inkscape:version="0.92.3 (2405546, 2018-03-11)"
   sodipodi:docname="opendata-4.svg">
  <defs
     id="defs902" />
  <sodipodi:namedview
     id="base"
     pagecolor="#ffffff"
     bordercolor="#666666"
     borderopacity="1.0"
     inkscape:pageopacity="0.0"
     inkscape:pageshadow="2"
     inkscape:zoom="16.417062"
     inkscape:cx="8.4522277"
     inkscape:cy="2.5068858"
     inkscape:document-units="mm"
     inkscape:current-layer="layer1"
     showgrid="false"
     units="px"
     fit-margin-top="0"
     fit-margin-left="0"
     fit-margin-right="0"
     fit-margin-bottom="0"
     inkscape:window-width="1920"
     inkscape:window-height="1031"
     inkscape:window-x="1920"
     inkscape:window-y="25"
     inkscape:window-maximized="1" />
  <metadata
     id="metadata905">
    <rdf:RDF>
      <cc:Work
         rdf:about="">
        <dc:format>image/svg+xml</dc:format>
        <dc:type
           rdf:resource="http://purl.org/dc/dcmitype/StillImage" />
        <dc:title />
      </cc:Work>
    </rdf:RDF>
  </metadata>
  <g
     inkscape:label="Ebene 1"
     inkscape:groupmode="layer"
     id="layer1"
     transform="translate(171.50595,-209.66786)">
    <circle
       style="opacity:1;vector-effect:none;fill:#003064;fill-opacity:1;stroke:none;stroke-width:1.05833316;stroke-linecap:round;stroke-linejoin:round;stroke-miterlimit:4;stroke-dasharray:none;stroke-dashoffset:0;stroke-opacity:1"
       id="path10"
       cx="-168.33095"
       cy="212.84286"
       r="3.175" />
    <g
       aria-label="URI"
       style="font-style:normal;font-variant:normal;font-weight:bold;font-stretch:normal;font-size:2.82222223px;line-height:1.25;font-family:Arial;-inkscape-font-specification:'Arial Bold';text-align:center;letter-spacing:0px;word-spacing:0px;text-anchor:middle;fill:#ffffff;fill-opacity:1;stroke:none;stroke-width:0.26458332"
       id="text819">
      <path
         d="m -170.59697,212.02531 h 0.4079 v 1.09417 q 0,0.26044 0.0152,0.33761 0.0262,0.12403 0.12402,0.19982 0.0992,0.0744 0.2701,0.0744 0.17363,0 0.26182,-0.0703 0.0882,-0.0717 0.10611,-0.17501 0.0179,-0.10335 0.0179,-0.34313 v -1.11759 h 0.4079 v 1.06109 q 0,0.3638 -0.0331,0.51401 -0.0331,0.15021 -0.12264,0.25356 -0.0882,0.10335 -0.23702,0.16536 -0.14883,0.0606 -0.38861,0.0606 -0.28939,0 -0.4396,-0.0661 -0.14882,-0.0675 -0.23564,-0.17363 -0.0868,-0.10749 -0.11438,-0.22462 -0.04,-0.17363 -0.04,-0.51263 z"
         style="font-style:normal;font-variant:normal;font-weight:bold;font-stretch:normal;font-size:2.82222223px;font-family:Arial;-inkscape-font-specification:'Arial Bold';text-align:center;text-anchor:middle;fill:#ffffff;stroke-width:0.26458332"
         id="path61" />
      <path
         d="m -168.55334,214.04552 v -2.02021 h 0.85852 q 0.32384,0 0.46991,0.0551 0.14745,0.0537 0.23564,0.19293 0.0882,0.13918 0.0882,0.31833 0,0.22737 -0.13367,0.3762 -0.13367,0.14745 -0.39963,0.18604 0.13229,0.0772 0.21773,0.16949 0.0868,0.0923 0.23289,0.32798 l 0.24666,0.39412 h -0.48782 l -0.2949,-0.4396 q -0.1571,-0.23564 -0.21498,-0.29628 -0.0579,-0.062 -0.12264,-0.0841 -0.0648,-0.0234 -0.20533,-0.0234 h -0.0827 v 0.84336 z m 0.4079,-1.16582 h 0.30179 q 0.29352,0 0.36656,-0.0248 0.073,-0.0248 0.11437,-0.0854 0.0413,-0.0606 0.0413,-0.15158 0,-0.10198 -0.0551,-0.16399 -0.0537,-0.0634 -0.15296,-0.0799 -0.0496,-0.007 -0.29765,-0.007 h -0.31833 z"
         style="font-style:normal;font-variant:normal;font-weight:bold;font-stretch:normal;font-size:2.82222223px;font-family:Arial;-inkscape-font-specification:'Arial Bold';text-align:center;text-anchor:middle;fill:#ffffff;stroke-width:0.26458332"
         id="path63" />
      <path
         d="m -166.52762,214.04552 v -2.02021 h 0.4079 v 2.02021 z"
         style="font-style:normal;font-variant:normal;font-weight:bold;font-stretch:normal;font-size:2.82222223px;font-family:Arial;-inkscape-font-specification:'Arial Bold';text-align:center;text-anchor:middle;fill:#ffffff;stroke-width:0.26458332"
         id="path65" />
    </g>
  </g>
</svg>
